<svg xmlns="http://www.w3.org/2000/svg" viewBox="0 0 85.44 116.94">
  <defs>
    <style>
      .cls-1 {
        fill: #fff;
        fill-rule: evenodd;
      }
    </style>
  </defs>
  <title>abstract-face_1</title>
  <g id="Layer_2" data-name="Layer 2">
    <g id="Layer_1-2" data-name="Layer 1">
      <path class="cls-1" d="M4.41,64.13c-.7,1.3.08,3.38.28,4.77a7.21,7.21,0,0,1,.43,2.21,1.83,1.83,0,0,1,0,.52.29.29,0,0,1-.21.24v0l0,0h0a.65.65,0,0,1-.67-.47.83.83,0,0,1,0-.24h0c-.08-.36-.15-.71-.22-1.06-.33-.89-.51-1.87-.74-2.71-.33-1.21-1.34-8.47,1.84-7.75,1.17.27,2.92,3,2.72,4.31a1.42,1.42,0,0,1,0,.22C7.12,65.85,4.43,64.1,4.41,64.13ZM8,77.27a9.28,9.28,0,0,1-.82-.71c-.31-.28-.73-.88-1.15-1,0,0,0,0,0,0,.07.44.57.93.82,1.28.38.53.81,1.38,1.41,1.68.45.22.79-.37.54-.73A3.22,3.22,0,0,0,8,77.27Zm.08-10.12c.11-.26-.39-.65-.6-.69-.44-.07-.61.92-.75,1.17A8.36,8.36,0,0,0,6,73.1c.36,1.18,2.31,2.59,3.07,1.06C9.88,72.42,7.22,69.42,8.11,67.15Zm72.21,4.13a1,1,0,0,0,.12.76c.34.57.83-1.18.88-1.35.3-1.1.58-2.2.87-3.3s1.34-8.47-1.84-7.75c-1.17.27-2.92,3-2.72,4.31a.79.79,0,0,0,.05.22c.64,1.68,3.33-.07,3.35,0,.7,1.3-.08,3.38-.28,4.77A6.88,6.88,0,0,0,80.32,71.28Zm-3.91,2.88c.76,1.53,2.71.12,3.07-1.06a8.42,8.42,0,0,0-.8-5.47c-.14-.25-.32-1.24-.75-1.17-.21,0-.71.43-.61.69C78.22,69.42,75.56,72.42,76.41,74.16Zm1.82,2.4a9.28,9.28,0,0,1-.82.71,3.22,3.22,0,0,0-.75.62c-.25.36.09,1,.54.73s1-1.15,1.4-1.68c.26-.35.76-.84.82-1.28,0,0,0-.06,0,0C79,75.68,78.53,76.28,78.23,76.56Zm3.7,1.77a26.56,26.56,0,0,1-2.69,4c-.94,1.85-2.15,3.74-4.89,2.41-.18-.09-1.09.63-1.11,1a22.15,22.15,0,0,1-1.16,5.76h0v0a26.79,26.79,0,0,1-1.25,3,34.61,34.61,0,0,1-4.27,7.63,35.66,35.66,0,0,1-4,4.26c-3.5,3.28-6.09,7.23-10.71,9.2-3.42,1.46-7.34,1.39-11,1a19.71,19.71,0,0,1-7.66-2.39A49.18,49.18,0,0,1,20,102.74c-4-4.94-7.4-10.28-7.82-16.94,0-.38-.93-1.1-1.12-1-2.73,1.33-3.94-.56-4.88-2.41a26.56,26.56,0,0,1-2.69-4C1.22,74.54-.64,68.18.21,63.8c.45-2.3.87-4.6,1.36-6.88.35-1.69,1.37-2.86,3.13-2.86s1.81-.64,1.5-2.2c-1.76-9-3-18-1.14-27.23.67-3.29,1.92-6.24,4.55-8.35,4-3.25,8.17-6.37,12.31-9.49A28.88,28.88,0,0,1,36.68.66,5.44,5.44,0,0,0,38.2,0h5.36A50.28,50.28,0,0,0,58,2.4c5.7,0,8.09,4,9.52,8.21A3.79,3.79,0,0,1,67.37,12a5.07,5.07,0,0,1-.93-.92c-.37-.62-.63-1.31-.94-2-.64-1.38-.56-1.29-1.56-.46-.27.22-1.17-.46-1.41.54-.06.21-.59.33-.6.51A5.27,5.27,0,0,0,62.1,11c-.76.07-1.69.44-2.25.14a35.62,35.62,0,0,1-3.91-2.73,7.91,7.91,0,0,0-1.16-.86,6,6,0,0,0-1.3-.27,4.16,4.16,0,0,0,.63,1c1.12.92,2.28,1.79,3.42,2.69a8,8,0,0,1,.66.64,3.61,3.61,0,0,1-.89.18c-.76-.05-1.51-.16-2.26-.24a9.29,9.29,0,0,0,1.76,1.92c1.11.67,1.56,2.72,3.53,1.81.18-.08.71.57,1.07.89s.71.64,1.06,1c-.15-.45-.28-.89-.45-1.33-.09-.22-.31-.39-.38-.62-.2-.62-.35-1.25-.52-1.88.42.44.86.86,1.26,1.33.2.24.28.64.52.8a9,9,0,0,0,1.45.63c0-.47,0-.94,0-1.41s-.06-.87-.1-1.31a6.54,6.54,0,0,0,1,1c.81.53,1.9.78,2.47,1.48,1.85,2.26.94,5.64-1.89,7.14-1.8.95-3.72,1.69-5.6,2.48a.86.86,0,0,1-.81-.2c-.38-.79-.61-1.17-1.23-.12-.18.3-1,.2-1.59.28a2.82,2.82,0,0,0-.84.09c-.53.29-1,.66-1.52,1-.29-.61-.58-1.21-.85-1.83-.18-.41-.32-.83-.48-1.25,0,.43-.09.87-.09,1.3,0,2.12-1.54,1.68-2.76,1.7a10.77,10.77,0,0,1-3.17-.23,6.47,6.47,0,0,1-2.4-1.56c-.44-.42-.5-1.2-.85-1.73a8.27,8.27,0,0,0-1.17-1.2c.15.49.29,1,.44,1.45a13.1,13.1,0,0,1,.68,2.3c0,.25-.75.9-.9.83-3.19-1.5-6.48-.58-9.72-.46a2.61,2.61,0,0,1-.48,0c-2.35-.3-4.68-.7-7,.24-.4.15-1.17-.41-1.67-.77-.66-.47-1.16-1.18-1.85-1.57a7.3,7.3,0,0,0-2-.49,13.87,13.87,0,0,0,1.49,1.19c2,1.15,2.06,2.49.08,3.68a15.91,15.91,0,0,1-2.79,1.48c-2.6.88-3.32,3.08-3.88,5.36-.76,3-1.46,6.12-2.08,9.21-.15.73.23,1.55.13,2.3-.34,2.7-.87,5.38-1.16,8.09-.13,1.24.19,2.53.16,3.79,0,1,.23,2.47-1.25,2.41-.7,0-1.46-1.16-2-1.93s-.37-1.65-.84-2.25c-.6-.76-1.6-1.85-2.28-1.75-1,.14-2.51,1-2.73,1.9C2.54,57.76,2.27,58.88,2,60c-.77,3.66-1.47,7.86.11,11.37.28.61.54,1.22.82,1.83.56,1.25,1.18,2.47,1.79,3.69s.93,2.47,1.52,3.65a9,9,0,0,0,2.11,2.65c.32.28.6.76,1,.86A1.75,1.75,0,0,0,10.48,84a1.73,1.73,0,0,0,.89-1.79c-.17-2.83-.51-5.65-.74-8.48-.16-1.86-.28-3.72-.35-5.58,0-.3.29-.61.44-.92a2.5,2.5,0,0,1,.48.78c.29,1.83.54,3.66.77,5.5.58,4.66,1,9.35,1.75,14,1.29,8.34,6.33,14.39,12.47,19.7,1.84,1.59,3.73,3.12,5.61,4.66,5.14,4.21,13,4.74,19.11,2.75a20.62,20.62,0,0,0,2-.79,21,21,0,0,0,2.2-1.46c.52-.39,1-.78,1.54-1.17A65.52,65.52,0,0,0,64.83,102a46,46,0,0,0,4.87-7.8,25.13,25.13,0,0,0,2-6.72c.72-4.64,1.16-9.33,1.75-14,.23-1.84.48-3.67.77-5.5,0-.28.31-.52.48-.78.15.31.45.62.44.92-.08,1.86-.19,3.72-.35,5.58-.23,2.83-.57,5.65-.74,8.48A1.65,1.65,0,0,0,75.59,84c3-.2,3.92-4.88,5-7,1.24-2.31,2.25-4.7,3.31-7.09.74-4.41-.2-8.87-1.33-13.26-.22-.86-1.72-1.76-2.73-1.9-.68-.1-1.68,1-2.28,1.75-.47.6-.41,1.59-.84,2.25s-1.27,1.9-2,1.93c-1.85.08-1.37-2-.71-3.41a.36.36,0,0,1-.12-.34c.69-4.71.94-9.58,2.07-14.2a8.39,8.39,0,0,0-1.55-7.51c-1.38-1.82-1-2.64,1.26-3.18.78-.19,1.61-.21,2.38-.42a6.42,6.42,0,0,0,1.32-.74,4.56,4.56,0,0,0-1.62-.26c-1,.23-2,.68-3,1a2.67,2.67,0,0,1-3.61-1.44A21.56,21.56,0,0,0,68,26.05c-1.25-1.35-1.21-2.6.08-3.75a32.7,32.7,0,0,1,3.5-2.56c.46-.31,1.09-.37,1.53-.69a16.48,16.48,0,0,0,1.59-1.54c-1.08-.3-2.72-1.18-3.11-.79-1.32,1.31-1.4.12-1.73-.58a10.48,10.48,0,0,1-.62-1.84c-.28-1,.31-1.43,1.15-1.1,1.35.52,3,.94,3.85,2a29.18,29.18,0,0,1,4.62,6.91A63.61,63.61,0,0,1,82.1,32.22a9.44,9.44,0,0,1,.08,4.72c-1.42,5.12-1.4,10.53-3.05,15.57a.64.64,0,0,0,0,.07c-.13,1,.13,1.47,1.63,1.48,1.76,0,2.78,1.17,3.13,2.86.49,2.28.91,4.58,1.36,6.88C86.08,68.18,84.22,74.54,81.93,78.33ZM73.24,22.42a2.48,2.48,0,0,0,.37-.5c.23-.57.42-1.16.63-1.75a4.93,4.93,0,0,0-1.69.37,10.69,10.69,0,0,0-1.63,1.66Zm1.11,1.32a1.8,1.8,0,0,0,.7-.08,11.32,11.32,0,0,0,1.19-.75c-.41-.32-.81-.86-1.25-.9a5.14,5.14,0,0,0-1.77.45L72,23.86ZM76,27.08c.61-.06,1.17-.66,1.75-1,0-.28,0-.57,0-.85-.51-.3-1.27-1-1.5-.82a12.57,12.57,0,0,0-2,1.95C74.77,26.6,75.39,27.13,76,27.08Zm1.34.2c-.82.93-1.44,1.64-2.05,2.35.44.15,1,.53,1.32.4a3.63,3.63,0,0,0,1.67-1.18C78.36,28.68,77.69,27.93,77.29,27.28Zm1.82,8.78A8.93,8.93,0,0,0,79,37.91c0,.27.44.55.74.73.12.07.59-.15.58-.17C80.1,37.57,80.94,36.12,79.11,36.06ZM76.7,33.94c2.19-.94,1.45,1.57,2.42,2.06a.08.08,0,0,1,0,0c1.71-.67,1.79-1.91.82-3.17-1.28-1.66-1.91.82-3,.64C76.87,33.5,76.78,33.79,76.7,33.94ZM52.15,12.3c-1.73,1-3.12.61-4.75,0a5.32,5.32,0,0,0-2.38.16L31.39,14.2c0-.17-.06-.35-.1-.52l-3.56.93a6.2,6.2,0,0,0-.77.31,4.14,4.14,0,0,0,.74.6c1.79.84,3.65,1.57,5.39,2.52a13.67,13.67,0,0,1,2.29,2c-.13-1-.29-2-.37-2.95A5.11,5.11,0,0,1,35.16,16a7,7,0,0,1,1,.61c1.35,1.15,2.65,2.34,4,3.47a4.86,4.86,0,0,0,1.18.52c-.25-.3-.47-.61-.74-.88a8.74,8.74,0,0,1-.89-.82c-.45-.63-.83-1.31-1.24-2L40.29,18l.8.45a3.63,3.63,0,0,0-.06-1.1,8.72,8.72,0,0,0-.65-1c-.31-.56-.58-1.14-.86-1.72.52.36,1,.69,1.56,1.07s1.13.92,1.74,1.31a1.34,1.34,0,0,0,.83.08c.55-2.14,1.68-.11,2.42-.39.44-.17,2.58.57,1-1.3-.13-.15-.11-.42-.16-.63a2.66,2.66,0,0,1,.9.08c1.78.81,2.76,3.27,5.29,2.55.07,0,.2.24.32.34.39.32.8.62,1.2.93a17.3,17.3,0,0,0-.19-1.78,7.21,7.21,0,0,0-.51-1.24,6.32,6.32,0,0,1,1.78.34,10.62,10.62,0,0,1,1.73,1.37c-.3-.72-.59-1.43-.9-2.14-.1-.22-.25-.42-.34-.64C55.6,13.16,53.28,11.61,52.15,12.3ZM40.05,2.19a5.89,5.89,0,0,1,.24.58c.13.35.24.71.35,1.07A1.2,1.2,0,0,1,41,4c3.17,2.9,3.17,2.9,6.56,3.61.15,0,.29,0,.44,0,0-.13,0-.3-.08-.39-.24-.32-.54-.6-.77-.93a9.12,9.12,0,0,1-.53-1c.41.15.93.19,1.21.47.85.86,1.6,1.81,2.4,2.72a3.59,3.59,0,0,0,.58.42c0-.25,0-.5,0-.75-.08-1.95-5-6.19-6.66-5.5a3.37,3.37,0,0,1-3.52-.49C40.52,2.17,40.26,2.22,40.05,2.19ZM37.77,5.26c1.47,1.5,2.7,3.45,5.23,3.33.27,0,.55.23.83.35a3.77,3.77,0,0,0-.32-1.08c-.93-1.34-1.91-2.66-2.88-4a6.33,6.33,0,0,0-2.09,0A2,2,0,0,0,37.77,5.26ZM33.22,8.39c1.08.65,1.9,2,3.67,1.39.61,0,.58,0,.59-.84a.94.94,0,0,1,.74-.27c.82.49,1.58,1.08,2.38,1.62a3.55,3.55,0,0,0,.63.28c0-.18.05-.42,0-.53-1.8-2.11-3.7-4.16-6.63-4.45-.66-.07-1.48.89-2.09,1.5C32.37,7.19,32.83,8.15,33.22,8.39ZM26.87,11.2a3.91,3.91,0,0,0,1.94.73c1.42-.13,2.8-.58,4.21-.81a6.43,6.43,0,0,1,1.56.14,8.06,8.06,0,0,0-1.76-1.7,3.82,3.82,0,0,0-2,0c-.85.13-1.68.38-2.52.57l-.19-.5a8.67,8.67,0,0,0-1.34.74A.88.88,0,0,0,26.87,11.2Zm-5,5.63c.09.19.13.47.28.55a10.81,10.81,0,0,0,7.86,1c.05,0,.1-.59,0-.63-1.79-.93-3.59-1.81-5-2.52C23.32,15.28,23.4,17.46,21.83,16.83Zm-4.42,1.46c.64.09,1.28.15,1.92.25a5.76,5.76,0,0,1,1.17.31,8.22,8.22,0,0,1,1,.59,7.8,7.8,0,0,0-1.08.15c-.59.17-1.16.4-1.75.61.52.59.92,1.46,1.56,1.73A25.2,25.2,0,0,0,24.38,23c.09,0,.44-.41.4-.56-.35-1.39.14-1.27,1-.62a5.62,5.62,0,0,0,.82.39c-.08-.36-.05-.9-.28-1.05-2.13-1.36-4.31-2.66-6.48-4-.09.15-.19.3-.28.46Zm-3.71,14c0-.14-.11-.28-.17-.42-.18.14-.46.25-.53.43-.55,1.4-1.09,2.81-1.57,4.24-.1.28.09.66.14,1,.25-.27.63-.49.74-.81.45-1.31.82-2.65,1.22-4C13.58,32.58,13.64,32.44,13.7,32.28ZM9.79,22.13a1.3,1.3,0,0,0,.85,0c.82-.45,1.6-1,2.62-1.61a5.23,5.23,0,0,0-1.87-.14,5.66,5.66,0,0,0-1.65,1.15C9.64,21.6,9.72,22.11,9.79,22.13Zm-.51,3.64c.79.38,1.67,1.2,2.33,1.05,1-.23,1.76-1.16,2.63-1.79,0-.15,0-.29-.07-.44-1.32.09-2.64.13-3.95.32C9.88,25,9.59,25.47,9.28,25.77Z"/>
    </g>
  </g>
</svg>
