<svg xmlns="http://www.w3.org/2000/svg" viewBox="0 0 1240.28 923.11">
  <defs>
    <style>
      .cls-1 {
        fill: #f6ad84;
      }

      .cls-2 {
        fill: #f18868;
      }

      .cls-3 {
        fill: #1d1d1b;
      }
    </style>
  </defs>
  <title>arm</title>
  <g id="Layer_2" data-name="Layer 2">
    <g id="Capa_1" data-name="Capa 1">
      <g>
        <g>
          <path class="cls-1" d="M72.44,501.36q6.81,4,14.18,7.95c1.09.58,2.18,1.16,3.31,1.78H90c9,4.76,18.49,9.42,28.38,13.93l0,0c55.66,25.25,91.13,46,149.34,39.51,0,0,77.46-79.54,72.44-107.25,0,0-32.54-73.67-61.67-114.11,0,0-32.46-54.16-58.75-61.16s-46.06,10.65-46.06,10.65l-7.66-6.08C155,277.78,135.13,262.06,128.49,257c-36.17-27.5-75.34-7.48-28.49,46.94-5.18-3.3-40.9-27.32-63.74-3.72-16.09,16.57,27,55.95,27,55.95S7.29,346.45.72,366.26c-7.13,21.68,40.85,51.76,42.75,53-1.95,0-34.52.64-33,28.25C11.05,458.47,35.57,479.86,72.44,501.36Z"/>
          <path class="cls-2" d="M72.44,501.36q6.81,4,14.18,7.95c11.24-1,23.86-4.72,31.73-15.2,16.94-22.62-8.95-40.48-8.95-40.48s24.63,8.86,32.85-8.3-4.52-31.45-4.52-31.45,23.3,3.37,30.56-11.3S146,352.36,146,352.36s14.72,26.08,12.7,40.83-24.41,19.33-47.75,1.33c2.56,1.94,26.22,20.58,21.05,40.67-5.36,20.66-49.86,6-52.25,5.16,2.2,1.45,42.58,27.68,32.68,45.61C105.62,498.29,87.36,501.56,72.44,501.36Z"/>
          <path class="cls-2" d="M171,324.11s-16,41.69,4.47,68.15,68.09-2.94,82.31-43c0,0,5.28,26.76-21.61,50.85s-62.42,11.09-70.08-5.84S155.24,359.37,171,324.11Z"/>
          <path class="cls-2" d="M184.29,402.64s-10.64,54.2,65.86,91.65c0,0-81.93-1.32-80.88-95Z"/>
        </g>
        <path class="cls-3" d="M1188.05,4.35s161.4,292.54-83.27,906.11c0,0-166.86,114.39-861.76-344.76,56.53-45.43,81.15-86.12,91.89-119.4,0,0,133.62,61.84,273.08,95.11S931,674.58,931,674.58,850.21-63,1188.05,4.35Z"/>
      </g>
    </g>
  </g>
</svg>
