<svg xmlns="http://www.w3.org/2000/svg" viewBox="0 0 512.45 455.52">
  <defs>
    <style>
      .cls-1 {
        fill: #fff;
      }
    </style>
  </defs>
  <title>heart-cutout</title>
  <g id="Layer_2" data-name="Layer 2">
    <g id="Layer_1-2" data-name="Layer 1">
      <g>
        <path class="cls-1" d="M177.9,397.93C126.32,354,81.77,316,50.78,278.61,16.14,236.81,0,197.17,0,153.87V455.52H256a30,30,0,0,1-19.79-7.44C215.48,430,195.51,412.94,177.9,397.93Z"/>
        <path class="cls-1" d="M334.11,397.91c-17.62,15-37.59,32-58.32,50.18A30,30,0,0,1,256,455.52H512V153.87c0,43.3-16.13,82.94-50.78,124.74C430.23,316,385.69,354,334.11,397.91Z"/>
        <path class="cls-1" d="M0,0V153.87C0,111.8,14.43,73,40.61,44.58,67.12,15.83,103.49,0,143,0c29.55,0,56.62,9.34,80.44,27.77a164.31,164.31,0,0,1,32.53,34,164.79,164.79,0,0,1,32.52-34C312.35,9.34,339.42,0,369,0c39.54,0,75.91,15.83,102.41,44.58C497.57,73,512,111.8,512,153.87L512.45,0Z"/>
      </g>
    </g>
  </g>
</svg>
