<svg xmlns="http://www.w3.org/2000/svg" viewBox="0 0 460.6 460.6">
   <style>
     .st2{fill:#b7b3b3}.st3,.st4{fill:none;stroke:#1d1d1b;stroke-width:16;stroke-linecap:round;stroke-miterlimit:10}.st4{fill:#1d1d1b;stroke-width:10.4329}
   </style>
   <g id="Layer_3">
     <path class="straw" d="M97.4 448V260.1"/>
     <path class="straw" d="M97.4 425.5c-.3-8.1-.4-16.6 0-25.4 2-47.2 14.6-90.8 28.4-121.4"/>
     <path class="straw" d="M185.2 448V260.1"/>
     <path class="straw" d="M185.2 425.5c-.3-8.1-.4-16.6 0-25.4 2-47.2 14.6-90.8 28.4-121.4"/>
     <path class="straw" d="M271.8 448V260.1"/>
     <path class="straw" d="M271.8 425.5c-.3-8.1-.4-16.6 0-25.4 2-47.2 14.6-90.8 28.4-121.4"/>
     <path class="straw" d="M358.5 448V260.1"/>
     <path class="straw" d="M358.5 425.5c-.3-8.1-.4-16.6 0-25.4 2-47.2 14.6-90.8 28.4-121.4"/>
     <path class="ground" d="M21.5 452h415.8"/>
     <path class="grain" d="M103.8 241.5l16.5-16.4"/>
     <path class="grain" d="M103.8 212.4l16.5-16.5"/>
     <path class="grain" d="M103.8 183.3l16.5-16.5"/>
     <path class="grain" d="M103.8 155l16.5-16.5"/>
     <path class="grain" d="M103.8 125.9l16.5-16.5"/>
     <path class="grain" d="M103.8 96.7l16.5-16.4"/>
     <path class="grain" d="M103.8 68.9l16.5-16.5"/>
     <path class="grain" d="M103.8 39.8l16.5-16.5"/>
     <path class="grain" d="M90.3 226.6l-15.9-15.9"/>
     <path class="grain" d="M90.3 197.7l-15.9-15.9"/>
     <path class="grain" d="M90.3 168.8l-15.9-15.9"/>
     <path class="grain" d="M90.3 139.9L74.4 124"/>
     <path class="grain" d="M90.3 110.5L74.4 94.6"/>
     <path class="grain" d="M90.3 81.6L74.4 65.7"/>
     <path class="grain" d="M90.3 52.7L74.4 36.8"/>
     <path class="grain" d="M90.3 23.8L74.4 7.9"/>
     <path class="leaf" d="M105.7 6.5L101.1 4c-2.7-2-17-12.9-19.2-32.4-1.4-12.6 2.9-22.4 5-26.4 5.4 1.7 8.8 4.2 10.7 6 15.7 13.9 10.8 42 9.7 48.3-.6 3-1.2 5.5-1.6 7"/>
     <path class="grain" d="M191.4 241.5l16.5-16.4"/>
     <path class="grain" d="M191.4 212.4l16.5-16.5"/>
     <path class="grain" d="M191.4 183.3l16.5-16.5"/>
     <path class="grain" d="M191.4 155l16.5-16.5"/>
     <path class="grain" d="M191.4 125.9l16.5-16.5"/>
     <path class="grain" d="M191.4 96.7l16.5-16.4"/>
     <path class="grain" d="M191.4 68.9l16.5-16.5"/>
     <path class="grain" d="M191.4 39.8l16.5-16.5"/>
     <path class="grain" d="M177.9 226.6l-16-15.9"/>
     <path class="grain" d="M177.9 197.7l-16-15.9"/>
     <path class="grain" d="M177.9 168.8l-16-15.9"/>
     <path class="grain" d="M177.9 139.9l-16-15.9"/>
     <path class="grain" d="M177.9 110.5l-16-15.9"/>
     <path class="grain" d="M177.9 81.6l-16-15.9"/>
     <path class="grain" d="M177.9 52.7l-16-15.9"/>
     <path class="grain" d="M177.9 23.8l-16-15.9"/>
     <path class="leaf" d="M193.2 6.5L188.6 4c-2.6-1.9-17-12.9-19.2-32.4-1.4-12.6 2.9-22.4 5-26.4 5.4 1.7 8.8 4.2 10.7 6 15.7 13.9 10.8 42 9.7 48.3-.5 3-1.1 5.5-1.6 7"/>
     <path class="grain" d="M278.1 241.5l16.5-16.4"/>
     <path class="grain" d="M278.1 212.4l16.5-16.5"/>
     <path class="grain" d="M278.1 183.3l16.5-16.5"/>
     <path class="grain" d="M278.1 155l16.5-16.5"/>
     <path class="grain" d="M278.1 125.9l16.5-16.5"/>
     <path class="grain" d="M278.1 96.7l16.5-16.4"/>
     <path class="grain" d="M278.1 68.9l16.5-16.5"/>
     <path class="grain" d="M278.1 39.8l16.5-16.5"/>
     <path class="grain" d="M264.5 226.6l-15.9-15.9"/>
     <path class="grain" d="M264.5 197.7l-15.9-15.9"/>
     <path class="grain" d="M264.5 168.8l-15.9-15.9"/>
     <path class="grain" d="M264.5 139.9L248.6 124"/>
     <path class="grain" d="M264.5 110.5l-15.9-15.9"/>
     <path class="grain" d="M264.5 81.6l-15.9-15.9"/>
     <path class="grain" d="M264.5 52.7l-15.9-15.9"/>
     <path class="grain" d="M264.5 23.8L248.6 7.9"/>
     <path class="leaf" d="M279.9 6.5L275.3 4c-2.6-1.9-17-12.9-19.2-32.4-1.4-12.6 2.9-22.4 5-26.4 5.4 1.7 8.8 4.2 10.7 6 15.7 13.9 10.8 42 9.7 48.3-.6 3-1.2 5.5-1.6 7"/>
     <path class="grain" d="M365 241.5l16.5-16.4"/>
     <path class="grain" d="M365 212.4l16.5-16.5"/>
     <path class="grain" d="M365 183.3l16.5-16.5"/>
     <path class="grain" d="M365 155l16.5-16.5"/>
     <path class="grain" d="M365 125.9l16.5-16.5"/>
     <path class="grain" d="M365 96.7l16.5-16.4"/>
     <path class="grain" d="M365 68.9l16.5-16.5"/>
     <path class="grain" d="M365 39.8l16.5-16.5"/>
     <path class="grain" d="M351.5 226.6l-16-15.9"/>
     <path class="grain" d="M351.5 197.7l-16-15.9"/>
     <path class="grain" d="M351.5 168.8l-16-15.9"/>
     <path class="grain" d="M351.5 139.9l-16-15.9"/>
     <path class="grain" d="M351.5 110.5l-16-15.9"/>
     <path class="grain" d="M351.5 81.6l-16-15.9"/>
     <path class="grain" d="M351.5 52.7l-16-15.9"/>
     <path class="grain" d="M351.5 23.8l-16-15.9"/>
     <path class="leaf" d="M366.8 6.5L362.2 4c-2.6-1.9-17-12.9-19.2-32.4-1.4-12.6 2.9-22.4 5-26.4 5.4 1.7 8.8 4.2 10.7 6 15.7 13.9 10.8 42 9.7 48.3-.5 3-1.1 5.5-1.6 7"/>
   </g>
 </svg>
