<svg xmlns="http://www.w3.org/2000/svg" viewBox="0 0 431.82 521.16">
  <defs>
    <style>
      .cls-1 {
        fill: none;
        stroke-width: 16px;
      }

      .cls-1, .cls-2 {
        stroke: #1d1d1b;
        stroke-linecap: round;
        stroke-miterlimit: 10;
      }

      .cls-2 {
        fill: #1d1d1b;
        stroke-width: 10.43px;
      }
    </style>
  </defs>
  <title>plant</title>
  <g id="Layer_2" data-name="Layer 2">
    <g id="Layer_3" data-name="Layer 3">
      <g>
        <g>
          <line class="cls-1" x1="83.96" y1="509.16" x2="83.96" y2="321.27"/>
          <path class="cls-1" d="M84,486.69c-.34-8.13-.37-16.59,0-25.37,2-47.17,14.64-90.84,28.39-121.38"/>
        </g>
        <g>
          <line class="cls-1" x1="171.71" y1="509.16" x2="171.71" y2="321.27"/>
          <path class="cls-1" d="M171.71,486.69c-.34-8.13-.37-16.59,0-25.37,2-47.17,14.64-90.84,28.39-121.38"/>
        </g>
        <g>
          <line class="cls-1" x1="258.38" y1="509.16" x2="258.38" y2="321.27"/>
          <path class="cls-1" d="M258.38,486.69c-.34-8.13-.37-16.59,0-25.37,2-47.17,14.64-90.84,28.39-121.38"/>
        </g>
        <g>
          <line class="cls-1" x1="345.05" y1="509.16" x2="345.05" y2="321.27"/>
          <path class="cls-1" d="M345.05,486.69c-.34-8.13-.37-16.59,0-25.37,2-47.17,14.64-90.84,28.39-121.38"/>
        </g>
        <line class="cls-1" x1="8" y1="513.16" x2="423.82" y2="513.16"/>
        <line class="cls-1" x1="90.36" y1="302.73" x2="106.85" y2="286.23"/>
        <line class="cls-1" x1="90.36" y1="273.62" x2="106.85" y2="257.13"/>
        <line class="cls-1" x1="90.36" y1="244.51" x2="106.85" y2="228.02"/>
        <line class="cls-1" x1="90.36" y1="216.14" x2="106.85" y2="199.65"/>
        <line class="cls-1" x1="90.36" y1="187.03" x2="106.85" y2="170.54"/>
        <line class="cls-1" x1="90.36" y1="157.93" x2="106.85" y2="141.43"/>
        <line class="cls-1" x1="90.36" y1="130.07" x2="106.85" y2="113.58"/>
        <line class="cls-1" x1="90.36" y1="100.96" x2="106.85" y2="84.47"/>
        <line class="cls-1" x1="76.83" y1="287.77" x2="60.9" y2="271.84"/>
        <line class="cls-1" x1="76.83" y1="258.87" x2="60.9" y2="242.95"/>
        <line class="cls-1" x1="76.83" y1="229.98" x2="60.9" y2="214.05"/>
        <line class="cls-1" x1="76.83" y1="201.08" x2="60.9" y2="185.15"/>
        <line class="cls-1" x1="76.83" y1="171.69" x2="60.9" y2="155.76"/>
        <line class="cls-1" x1="76.83" y1="142.79" x2="60.9" y2="126.86"/>
        <line class="cls-1" x1="76.83" y1="113.89" x2="60.9" y2="97.97"/>
        <line class="cls-1" x1="76.83" y1="85" x2="60.9" y2="69.07"/>
        <path class="cls-2" d="M92.19,67.68l-4.61-2.55C85,63.2,70.63,52.25,68.39,32.74a46.45,46.45,0,0,1,5-26.43,29.56,29.56,0,0,1,10.73,6c15.71,13.92,10.78,42,9.67,48.34-.54,3.07-1.17,5.54-1.59,7.07"/>
        <line class="cls-1" x1="177.93" y1="302.73" x2="194.42" y2="286.23"/>
        <line class="cls-1" x1="177.93" y1="273.62" x2="194.42" y2="257.13"/>
        <line class="cls-1" x1="177.93" y1="244.51" x2="194.42" y2="228.02"/>
        <line class="cls-1" x1="177.93" y1="216.14" x2="194.42" y2="199.65"/>
        <line class="cls-1" x1="177.93" y1="187.03" x2="194.42" y2="170.54"/>
        <line class="cls-1" x1="177.93" y1="157.93" x2="194.42" y2="141.43"/>
        <line class="cls-1" x1="177.93" y1="130.07" x2="194.42" y2="113.58"/>
        <line class="cls-1" x1="177.93" y1="100.96" x2="194.42" y2="84.47"/>
        <line class="cls-1" x1="164.4" y1="287.77" x2="148.47" y2="271.84"/>
        <line class="cls-1" x1="164.4" y1="258.87" x2="148.47" y2="242.95"/>
        <line class="cls-1" x1="164.4" y1="229.98" x2="148.47" y2="214.05"/>
        <line class="cls-1" x1="164.4" y1="201.08" x2="148.47" y2="185.15"/>
        <line class="cls-1" x1="164.4" y1="171.69" x2="148.47" y2="155.76"/>
        <line class="cls-1" x1="164.4" y1="142.79" x2="148.47" y2="126.86"/>
        <line class="cls-1" x1="164.4" y1="113.89" x2="148.47" y2="97.97"/>
        <line class="cls-1" x1="164.4" y1="85" x2="148.47" y2="69.07"/>
        <path class="cls-2" d="M179.76,67.68l-4.61-2.55c-2.63-1.93-17-12.88-19.19-32.39a46.45,46.45,0,0,1,5-26.43,29.56,29.56,0,0,1,10.73,6c15.71,13.92,10.78,42,9.67,48.34-.54,3.07-1.17,5.54-1.59,7.07"/>
        <line class="cls-1" x1="264.6" y1="302.73" x2="281.09" y2="286.23"/>
        <line class="cls-1" x1="264.6" y1="273.62" x2="281.09" y2="257.13"/>
        <line class="cls-1" x1="264.6" y1="244.51" x2="281.09" y2="228.02"/>
        <line class="cls-1" x1="264.6" y1="216.14" x2="281.09" y2="199.65"/>
        <line class="cls-1" x1="264.6" y1="187.03" x2="281.09" y2="170.54"/>
        <line class="cls-1" x1="264.6" y1="157.93" x2="281.09" y2="141.43"/>
        <line class="cls-1" x1="264.6" y1="130.07" x2="281.09" y2="113.58"/>
        <line class="cls-1" x1="264.6" y1="100.96" x2="281.09" y2="84.47"/>
        <line class="cls-1" x1="251.07" y1="287.77" x2="235.14" y2="271.84"/>
        <line class="cls-1" x1="251.07" y1="258.87" x2="235.14" y2="242.95"/>
        <line class="cls-1" x1="251.07" y1="229.98" x2="235.14" y2="214.05"/>
        <line class="cls-1" x1="251.07" y1="201.08" x2="235.14" y2="185.15"/>
        <line class="cls-1" x1="251.07" y1="171.69" x2="235.14" y2="155.76"/>
        <line class="cls-1" x1="251.07" y1="142.79" x2="235.14" y2="126.86"/>
        <line class="cls-1" x1="251.07" y1="113.89" x2="235.14" y2="97.97"/>
        <line class="cls-1" x1="251.07" y1="85" x2="235.14" y2="69.07"/>
        <path class="cls-2" d="M266.43,67.68l-4.61-2.55c-2.63-1.93-16.95-12.88-19.19-32.39a46.45,46.45,0,0,1,5-26.43,29.56,29.56,0,0,1,10.73,6c15.7,13.92,10.78,42,9.66,48.34-.53,3.07-1.16,5.54-1.58,7.07"/>
        <line class="cls-1" x1="351.53" y1="302.73" x2="368.03" y2="286.23"/>
        <line class="cls-1" x1="351.53" y1="273.62" x2="368.03" y2="257.13"/>
        <line class="cls-1" x1="351.53" y1="244.51" x2="368.03" y2="228.02"/>
        <line class="cls-1" x1="351.53" y1="216.14" x2="368.03" y2="199.65"/>
        <line class="cls-1" x1="351.53" y1="187.03" x2="368.03" y2="170.54"/>
        <line class="cls-1" x1="351.53" y1="157.93" x2="368.03" y2="141.43"/>
        <line class="cls-1" x1="351.53" y1="130.07" x2="368.03" y2="113.58"/>
        <line class="cls-1" x1="351.53" y1="100.96" x2="368.03" y2="84.47"/>
        <line class="cls-1" x1="338" y1="287.77" x2="322.07" y2="271.84"/>
        <line class="cls-1" x1="338" y1="258.87" x2="322.07" y2="242.95"/>
        <line class="cls-1" x1="338" y1="229.98" x2="322.07" y2="214.05"/>
        <line class="cls-1" x1="338" y1="201.08" x2="322.07" y2="185.15"/>
        <line class="cls-1" x1="338" y1="171.69" x2="322.07" y2="155.76"/>
        <line class="cls-1" x1="338" y1="142.79" x2="322.07" y2="126.86"/>
        <line class="cls-1" x1="338" y1="113.89" x2="322.07" y2="97.97"/>
        <line class="cls-1" x1="338" y1="85" x2="322.07" y2="69.07"/>
        <path class="cls-2" d="M353.36,67.68l-4.61-2.55c-2.62-1.93-16.95-12.88-19.18-32.39a46.47,46.47,0,0,1,5-26.43,29.47,29.47,0,0,1,10.73,6c15.71,13.92,10.78,42,9.67,48.34-.54,3.07-1.17,5.54-1.59,7.07"/>
      </g>
    </g>
  </g>
</svg>
