<svg xmlns="http://www.w3.org/2000/svg" viewBox="0 0 107.97 32.43">
  <title>curly-seperator</title>
  <g id="Layer_2" data-name="Layer 2">
    <g id="Layer_1-2" data-name="Layer 1">
      <g>
        <path d="M81.8,10.87c1.75-2.69,8.13-2.44,10.61-1.42A9.18,9.18,0,0,1,97.93,17C98.22,21.48,92,28,87.78,29a20.64,20.64,0,0,1-4.57.5,31.18,31.18,0,0,1-11.11-2.2C58.7,22.4,47.69,12.72,34.17,8c-8.26-2.9-18-4.61-25.29,1.42C2.6,14.61.25,22.41,0,30.31c0,.15,2.62-1.55,2.65-2.59.28-9.15,3-18,13.17-19.42,8.9-1.25,18.71,3.22,26.43,7.21,12.35,6.36,25.68,18.27,40.5,16.8,8.89-.88,20.48-9.58,17.39-19.74-3-9.72-15.57-7.87-20.2-.77-1.31,2,1.41-.23,1.86-.93Z"/>
        <path d="M30.2,21.62C28.44,24.31,22.08,24,19.59,23a9.06,9.06,0,0,1-5.52-7.59c-.22-3,4.38-9.33,6.81-10.82A15.26,15.26,0,0,1,27,3.08,28.19,28.19,0,0,1,38,4.55c12.76,4,23.24,13.09,35.49,18.28,8.44,3.58,21,7.63,28.92.71,5.18-4.55,6.28-11.67,5.11-18.13-.06-.35-2.81,1.67-2.64,2.59.73,4.06,1.12,9.06-1.33,12.69s-8.33,3.87-12.48,3.49c-9-.8-17.66-5-25.42-9.41C54.25,8.33,40.58-2.68,26.52.59,18.47,2.47,9,11,11.9,20.05c3,9.6,15.56,7.68,20.16.64,1.31-2-1.41.23-1.86.93Z"/>
      </g>
    </g>
  </g>
</svg>
